<?xml version="1.0" encoding="UTF-8"?>
<svg version="1.1" viewBox="0 0 511.93258 472.86167" xmlns="http://www.w3.org/2000/svg">
 <path d="m156.54 470.93c-9.6008-5.0631-18.522-18.173-23.753-34.906-3.1262-10-3.1743-24.439-0.12792-38.451 1.1958-5.5 2.8606-19 3.6997-30 3.1097-40.768 6.6608-101.3 6.374-108.65l-0.29601-7.5882-8.5 9.5691c-13.072 14.716-68.754 70.314-85 84.872-7.975 7.1462-20.522 18.012-27.882 24.145-11.269 9.3911-13.919 11.152-16.781 11.152-3.7676 0-4.9106-1.5766-3.9417-5.4372 0.33581-1.338 9.2063-12.474 19.712-24.748 40.84-47.71 51.425-61.797 79.13-105.32 14.006-22 28.053-44.003 31.214-48.895 3.9015-6.0377 5.1538-8.6628 3.8984-8.1716-1.0173 0.39798-14.675 4.0819-30.35 8.1865s-35.475 9.5384-44 12.075c-26.545 7.8987-29.091 8.478-35 7.9651-8.043-0.69802-21.618-5.277-23.466-7.9152-2.1919-3.1293-1.8975-6.4678 0.71632-8.1253 1.2375-0.78472 32.4-9.6268 69.25-19.649s68.013-18.604 69.25-19.072l2.25-0.84917v-31.59c0-19.864-0.38427-32.309-1.0352-33.525-1.4522-2.7134-4.0443-2.4414-15.393 1.6153-24.021 8.5863-65.06 19.089-78.67 20.133-7.2609 0.55695-7.6248 0.48325-8.1847-1.6579-0.8496-3.2489 2.7524-6.135 13.588-10.887 35.645-15.633 66.973-33.184 97.893-54.843 15.787-11.059 32.554-24.837 34.882-28.664 1.9175-3.1532 1.6817-4.4142-1.7803-9.5197-2.4872-3.668-3.0227-8.9862-1.0984-10.91 3.248-3.248 13.995-0.0769 24.108 7.1135 7.9935 5.6832 22.09 19.166 26.051 24.918 2.8661 4.1615 3.89 6.787 4.3375 11.123 0.65905 6.3856-0.73437 8.9423-5.5207 10.13-1.472 0.36515-11.088 4.4538-21.369 9.0858s-23.781 10.499-30 13.039c-6.2191 2.5392-11.656 4.8246-12.083 5.0787-0.42635 0.25409 1.3905 2.4092 4.0375 4.789 5.477 4.9243 9.8658 12.295 10.765 18.081 0.33722 2.1687-0.31857 12.929-1.4573 23.913-2.685 25.897-2.9041 23.533 2.1796 23.519 8.8247-0.0246 19.359-3.9922 30.063-11.322l6.8132-4.6658h10.989c12.25 0 21.236 1.684 33.077 6.1986 10.074 3.8409 14.807 8.7094 14.807 15.232 0 3.5984-0.49622 4.8149-2.6576 6.515-5.3414 4.2016-17.019 6.2479-45.842 8.033-27.131 1.6803-45.442 4.4434-50.228 7.5789-2.0009 1.311-2.2822 2.3524-2.3549 8.7159-0.0454 3.9748-0.4316 14.652-0.85824 23.727-0.54963 11.691-0.45272 16.825 0.33253 17.615 1.8862 1.8978 30.547 6.6856 48.034 8.0239 8.3961 0.64258 9.1585 0.89375 12.858 4.236 4.642 4.1938 11.001 13.289 13.711 19.611 2.4478 5.7105 4.4936 20.101 3.5629 25.062-0.43009 2.2926-1.9102 4.9135-3.7401 6.6229-6.0754 5.6753-16.962 3.1669-29.447-6.7847-6.6883-5.3313-41.866-36.55-44.5-39.492-1.5098-1.6862-1.6778 2.8874-2.2722 61.892-1.2032 119.43-2.0262 151.13-4.0486 155.98-3.3348 7.9932-8.554 9.9859-15.946 6.0879zm151.32-104.69c-7.0801-4.4901-11.895-11.16-15.564-21.56-0.79292-2.2474-6.7818-29.741-13.309-61.097-6.5269-31.356-12.658-58.986-13.624-61.399-0.9662-2.4132-3.933-7.0995-6.593-10.414-3.8252-4.7663-4.8363-6.8-4.8363-9.7274 0-6.2053 6.4094-11.971 13.308-11.971 1.3045 0 6.8005 2.9199 12.213 6.4887 5.4129 3.5688 11.397 6.7806 13.299 7.1373 2.5402 0.47655 21.391-3.2651 71.069-14.106 58.391-12.742 69.072-15.352 78.321-19.137 6.3092-2.5821 12.302-4.3829 14.586-4.3829 3.1309 0 8.449 2.5843 27.633 13.428 13.066 7.3855 24.614 14.205 25.664 15.155 1.1607 1.0504 1.9081 3.0511 1.9081 5.1076 0 3.4854-0.22306 3.7649-8.7282 10.937-2.3255 1.961-5.0966 4.9845-6.1581 6.7189-1.8447 3.0142-35.114 95.196-35.114 97.293 0 0.55639 1.1884 2.1026 2.6409 3.4359 7.8196 7.1783 10.93 18.01 6.1366 21.368-2.7578 1.9316-11.824 2.0182-42.488 0.40545-31.045-1.6328-56.494 0.82116-85.719 8.2656-10.378 2.6435-13.404 4.2831-14.129 7.6538-1.0444 4.8602-3.7603 10.341-5.8491 11.804-3.3848 2.3708-9.6614 1.7698-14.667-1.4045zm70.074-48.739c23.925-4.1648 43.786-7.8776 44.136-8.2507 0.34985-0.37308 4.951-24.721 10.225-54.106 7.5305-41.96 9.3344-53.734 8.4043-54.855-0.8652-1.0425-2.6773-1.2966-6.7247-0.94283-4.9536 0.43294-127.97 25.263-128.55 25.947-0.67653 0.80207 21.81 98.35 22.819 98.991 2.1408 1.3611 5.6852 0.8773 49.691-6.7831z"/>
</svg>
